<?xml version="1.0" encoding="UTF-8"?>
<svg xmlns="http://www.w3.org/2000/svg" width="128" height="128" viewBox="0 0 128 128">
  <defs>
    <linearGradient id="g" x1="0" y1="0" x2="1" y2="1">
      <stop offset="0%" stop-color="#6366f1"/>
      <stop offset="100%" stop-color="#8b5cf6"/>
    </linearGradient>
  </defs>
  <rect width="128" height="128" rx="28" fill="url(#g)"/>
  <!-- Two overlapping chat bubbles symbolising "together" -->
  <path d="M32 36 H76 a8 8 0 0 1 8 8 V70 a8 8 0 0 1 -8 8 H48 L36 90 V78 H32 a8 8 0 0 1 -8 -8 V44 a8 8 0 0 1 8 -8 Z"
        fill="white" opacity="0.95"/>
  <path d="M56 56 H96 a8 8 0 0 1 8 8 V92 a8 8 0 0 1 -8 8 H80 L70 112 V100 H56 a8 8 0 0 1 -8 -8 V64 a8 8 0 0 1 8 -8 Z"
        fill="white" opacity="0.6"/>
</svg>
